<?xml version="1.0" encoding="UTF-8" standalone="no"?>
<!-- Created with Inkscape (http://www.inkscape.org/) -->

<svg
   width="1024"
   height="1024"
   viewBox="0 0 270.93332 270.93333"
   version="1.1"
   id="svg1"
   xml:space="preserve"
   sodipodi:docname="logo.svg"
   inkscape:version="1.3.2 (091e20ef0f, 2023-11-25)"
   xmlns:inkscape="http://www.inkscape.org/namespaces/inkscape"
   xmlns:sodipodi="http://sodipodi.sourceforge.net/DTD/sodipodi-0.dtd"
   xmlns="http://www.w3.org/2000/svg"
   xmlns:svg="http://www.w3.org/2000/svg"><sodipodi:namedview
     id="namedview1"
     pagecolor="#505050"
     bordercolor="#eeeeee"
     borderopacity="1"
     inkscape:showpageshadow="0"
     inkscape:pageopacity="0"
     inkscape:pagecheckerboard="0"
     inkscape:deskcolor="#505050"
     inkscape:document-units="mm"
     inkscape:zoom="0.49175284"
     inkscape:cx="138.28085"
     inkscape:cy="459.58047"
     inkscape:window-width="1920"
     inkscape:window-height="972"
     inkscape:window-x="0"
     inkscape:window-y="36"
     inkscape:window-maximized="1"
     inkscape:current-layer="layer1" /><defs
     id="defs1"><clipPath
       clipPathUnits="userSpaceOnUse"
       id="clipPath6"><g
         id="g7"><circle
           style="fill:#bc5151;fill-opacity:1;stroke-width:0.345911;stroke-linejoin:round;stroke-miterlimit:0"
           id="circle6"
           cx="135.46666"
           cy="135.46666"
           r="135.46666" /></g></clipPath><clipPath
       clipPathUnits="userSpaceOnUse"
       id="clipPath7"><g
         id="g8"><circle
           style="fill:#bc5151;fill-opacity:1;stroke-width:0.345911;stroke-linejoin:round;stroke-miterlimit:0"
           id="circle7"
           cx="135.46666"
           cy="135.46666"
           r="135.46666" /></g></clipPath></defs><g
     inkscape:label="Layer 1"
     inkscape:groupmode="layer"
     id="layer1"><g
       id="g12"><g
         id="g11"
         style="fill:#1a1a1a;fill-opacity:1"><circle
           style="fill:#1a1a1a;fill-opacity:1;stroke-width:0.345911;stroke-linejoin:round;stroke-miterlimit:0"
           id="circle10"
           cx="135.46666"
           cy="135.46666"
           r="135.46666" /></g><path
         id="path4"
         style="fill:#bfbfbf;fill-opacity:1"
         d="m 134.93571,21.032 c -12.49067,0.18497 -22.10021,2.08688 -33.73437,6.67608 -16.149691,6.37037 -29.478432,16.23149 -40.394431,29.88603 -7.511112,9.39545 -11.947355,18.33258 -14.686442,29.58527 -0.561499,2.30677 -0.583011,2.93781 -0.675411,20.17448 l -0.0708,50.07188 v 2.38177 28.0324 28.03188 l 0.665593,2.10685 c 0.650269,2.05844 2.134274,4.44113 3.596163,5.77329 1.968278,1.79361 5.836343,3.39397 11.084078,4.58576 3.309376,0.75159 4.826092,1.43048 5.932971,2.65566 0.829409,0.91805 1.472261,2.41402 1.472261,3.42666 0,1.81675 -1.452409,3.9113 -3.196187,4.60902 -3.805716,1.52275 -8.451577,0.26256 -11.803414,-3.20187 l -1.64176,-1.69654 -3.714502,3.78272 -3.714502,3.78271 1.387512,1.28054 c 3.103867,2.86515 7.567466,5.31785 11.441162,6.28696 2.282272,0.57096 6.044079,0.62747 8.6434,0.13022 6.332527,-1.21182 11.649553,-6.18254 13.076205,-12.22561 0.550199,-2.33053 0.362218,-6.18449 -0.410311,-8.4155 -1.846328,-5.33208 -5.731531,-8.06676 -14.157792,-9.96529 -4.329966,-0.97558 -5.897176,-1.60229 -7.096725,-2.83703 -1.145548,-1.17915 -1.509985,-2.06995 -1.509985,-3.68918 0,-1.81334 0.857157,-3.365 2.340426,-4.23695 1.084079,-0.63728 1.500449,-0.72336 3.480407,-0.71831 1.872928,0.005 2.50233,0.12352 3.766179,0.71107 1.565898,0.72798 3.497209,2.45856 4.890657,4.38216 l 0.797368,1.10071 3.892785,-4.09019 3.892269,-4.09019 -2.203483,-2.1916 c -3.317867,-3.30011 -6.812985,-5.37924 -10.802441,-6.42544 -3.338727,-0.87555 -8.791893,-0.51066 -12.236979,0.81855 -0.43789,0.16896 -0.463021,-0.70586 -0.463021,-16.1215 3.530592,-5.19699 9.567308,-9.36242 11.724865,-15.25591 0,0 0.338825,-4.94503 0.462504,-13.65343 0.29625,-20.85779 0.575969,-25.19161 1.995228,-30.89993 0.736569,-2.9625 1.263669,-4.2674 2.633947,-6.52311 1.041799,-1.71501 1.437143,-1.94359 1.443323,-0.83406 0.01,1.80266 0.465207,1.4523 1.848466,-1.42265 1.419089,-2.94941 3.582848,-6.4537 5.288566,-8.56537 0.52895,-0.65484 1.666482,-2.08359 2.528011,-3.175 6.426364,-8.14105 15.17523,-17.31189 18.697567,-19.59984 2.969683,-1.92897 9.467713,-4.74183 10.954373,-4.74183 0.53934,0 0.45823,-0.22265 -0.46199,-1.27072 -1.28004,-1.45788 -1.80467,-2.8596 -1.81126,-4.83743 -0.007,-2.05166 0.44016,-3.52267 2.6386,-8.68371 1.72311,-4.04516 2.31734,-5.99014 3.18895,-10.43709 l 0.56276,-2.87166 -0.75086,-0.79013 c -1.52106,-1.6003 -3.81579,-2.32233 -7.39541,-2.32699 -4.24478,-0.005 -7.584328,0.92184 -13.165092,3.65611 -1.983228,0.97167 -3.605982,1.73114 -3.605982,1.68775 0,-0.31519 3.046915,-4.00502 4.709274,-5.70301 6.89842,-7.04629 13.79462,-10.98525 22.65805,-12.94185 2.21206,-0.48832 3.44686,-0.58515 7.29309,-0.57309 5.28393,0.0166 7.88604,0.41816 11.73882,1.81281 6.65305,2.4083 11.69616,5.93383 14.26166,9.96942 2.72375,4.2845 5.77671,14.0685 6.74222,21.6085 0.4225,3.29938 0.42277,3.61623 0.003,5.21673 -0.24579,0.93719 -0.764,2.18297 -1.15135,2.76831 -0.74707,1.12889 -2.80046,2.65772 -3.5698,2.65772 -0.25303,0 -1.20662,-0.35335 -2.11925,-0.78497 -0.91265,-0.4316 -2.17351,-0.86178 -2.8019,-0.95601 l -1.14257,-0.17105 v -3.38015 -3.38016 l 0.91003,-0.17105 c 0.54655,-0.10253 1.18068,-0.49218 1.5875,-0.97565 0.66515,-0.79051 0.67747,-0.88135 0.67747,-5.04569 0,-5.68267 -0.73424,-8.4132 -2.93729,-10.92233 -0.78679,-0.89613 -0.89698,-0.93586 -2.59105,-0.93586 -3.33187,0 -6.50665,1.25503 -10.2092,4.03645 l -1.8464,1.38751 1.08469,0.14573 c 1.41325,0.18959 2.29377,0.78773 2.83342,1.92495 1.60873,3.39015 -1.51676,7.19162 -4.60127,5.59655 -0.77947,-0.40307 -1.8268,-2.07166 -1.85828,-2.96054 -0.0126,-0.35602 -0.0795,-0.31611 -0.27027,0.16071 -0.13953,0.34885 -0.88799,1.47995 -1.66295,2.51355 -1.86994,2.49403 -2.06946,2.90228 -1.78438,3.64784 0.42899,1.1219 2.09478,2.06809 3.64163,2.06809 0.61911,0 0.62219,0.015 0.62219,3.24579 V 73.959 l -2.16369,0.76895 c -14.04652,4.99086 -23.08608,15.94384 -24.41557,29.58321 -0.1429,1.46601 -0.12548,1.52135 0.47904,1.52135 0.56135,0 0.64454,-0.14947 0.79375,-1.41903 0.45411,-3.86382 2.89279,-9.81074 5.63273,-13.73715 2.06078,-2.95314 7.0928,-7.92297 9.88416,-9.7622 5.21966,-3.43923 10.22998,-5.28498 16.40416,-6.04252 1.38244,-0.16963 2.87072,-0.26663 3.30729,-0.21549 l 0.79375,0.093 -0.92914,0.46043 c -1.82133,0.90282 -4.11426,3.61432 -5.14697,6.08594 -0.48344,1.15703 -0.23012,1.26968 0.67179,0.29817 1.67496,-1.80422 6.71752,-4.52037 9.53895,-5.13819 0.84879,-0.18586 2.46273,-0.27495 3.75326,-0.20722 2.83242,0.14867 4.94903,1.13488 7.17476,3.34295 4.57578,4.53948 8.66421,14.48706 9.6976,23.59546 0.368,3.24361 0.1686,10.42128 -0.37827,13.61415 l -0.36071,2.10478 1.41491,1.91307 c 0.77815,1.05222 1.53488,1.98725 1.68155,2.0779 0.17846,0.11029 0.26665,-8.14461 0.26665,-24.95454 v -25.1194 l 27.69753,0.14056 27.69702,0.14056 -0.75396,-1.29656 -5.60224,-9.19944 C 204.49432,44.75581 185.70343,31.31704 164.17207,24.88756 154.43418,21.97972 146.0066,20.86803 134.93561,21.03198 Z m 9.67435,33.52354 c 0.2628,0.008 0.5171,0.10471 0.91415,0.29404 1.66114,0.79214 2.51573,3.67508 1.60714,5.42137 -0.88509,1.70111 -2.36456,2.41713 -3.72897,1.80454 -1.11419,-0.50024 -1.64967,-1.18475 -1.94149,-2.48357 -0.48267,-2.14826 0.4178,-4.12722 2.18333,-4.79919 0.43155,-0.16425 0.70303,-0.24515 0.96584,-0.23719 z m -5.50664,7.66051 c 0.0419,0.009 0.10665,0.0836 0.19792,0.22479 0.14131,0.21866 0.25822,2.56515 0.26045,5.22552 l 0.004,4.82865 h -1.02991 -1.03043 l -0.18551,-2.34353 c -0.17889,-2.26013 -0.1514,-2.43446 0.76584,-4.88342 0.52314,-1.39674 0.95275,-2.69374 0.95498,-2.88199 0.002,-0.12178 0.0211,-0.17881 0.0631,-0.17002 z m 2.18229,5.38417 h 0.89504 0.89555 l 0.0305,2.44739 0.031,2.4474 -0.92605,-10e-4 -0.92604,-0.001 v -2.44636 z m -5.95312,0.36483 v 2.36833 2.36834 l -0.92604,0.108 -0.92605,0.108 -0.0398,-2.06344 c -0.0218,-1.13495 -0.0516,-2.21227 -0.0661,-2.39417 -0.0158,-0.1975 0.37332,-0.36385 0.96583,-0.41289 z m 34.5643,6.11798 c -0.0929,0 -0.16839,15.98416 -0.16795,35.52031 l 0.001,35.52031 3.90157,1.64745 c 2.146,0.90621 6.64053,2.77045 9.98751,4.1429 6.33674,2.59842 28.97157,12.23871 28.26494,12.04319 l 0.70693,0.19534 -5.2e-4,-13.26431 c 0,0 -14.30814,-5.44858 -17.33021,-6.55722 -3.20145,-1.24182 -9.03552,-3.47638 -12.96458,-4.96559 -3.92906,-1.4892 -7.23321,-2.78686 -7.3427,-2.88355 -0.18074,-0.15961 -0.32198,-54.487 -0.14211,-54.66074 0.1064,-0.10278 7.11901,0.94788 15.95148,2.38951 6.24075,1.01862 16.42166,2.58224 20.1998,3.62976 3.77814,1.04752 3.78886,2.65298 3.64732,51.36327 v 58.06261 l -9.82421,11.9295 c -4.9275,6.56119 -9.02674,11.86158 -9.10952,11.77861 -0.20627,-0.20672 -0.20617,-0.17956 -0.24701,-12.43697 l -0.0362,-10.8753 -4.98988,-0.18759 c -4.61075,-0.17313 -5.1788,-0.14262 -7.47448,0.39946 -3.56058,0.84075 -6.05955,0.82397 -7.90856,-0.0532 -3.59661,-1.70633 -5.5774,-5.4338 -3.82096,-7.19025 1.01339,-1.01339 2.33578,-1.12241 5.43792,-0.44752 3.45277,0.75118 7.193,0.66245 8.86974,-0.21033 2.25123,-1.17178 3.35712,-2.8157 4.22868,-6.2854 0.31782,-1.26523 0.71537,-2.10193 1.3038,-2.74402 0.76716,-0.83711 1.00511,-0.93359 2.53421,-1.02784 1.46852,-0.0905 2.08199,0.0395 4.72994,1.00252 4.70069,1.70943 8.22106,1.76975 11.5993,0.19895 l -0.88367,-1.86862 c -1.95618,0.93013 -2.28719,1.00503 -4.36563,0.98599 -1.91962,-0.0176 -2.73327,-0.18553 -5.55625,-1.1467 -5.13032,-1.74679 -7.14196,-1.73189 -9.19272,0.0687 -0.97228,0.85367 -2.17797,3.07102 -2.18023,4.00906 -0.005,2.17102 -2.12257,4.79477 -4.37906,5.42654 -1.39957,0.39186 -4.26123,0.22225 -6.62233,-0.39274 -2.32879,-0.60658 -4.77967,-0.52512 -6.06268,0.20154 -1.53145,0.86736 -2.29999,2.33159 -2.1823,4.15737 0.12196,1.89195 0.67793,3.00143 2.37712,4.74131 3.0257,3.09816 6.73536,3.87828 12.18995,2.56367 1.576,-0.37983 2.91545,-0.6904 2.97657,-0.6904 0.0611,0 0.11118,11.34073 0.1111,25.20156 v 25.20157 l 3.63802,-0.0568 c 2.00099,-0.0312 4.0845,-0.0609 4.63021,-0.0661 l 5.2e-4,-5.2e-4 0.99218,-0.009 v -6.58151 -6.58151 l 1.91823,-2.50269 c 2.54467,-3.32018 3.02766,-3.91345 3.18585,-3.91345 0.1467,0 1.63236,2.28774 6.52932,10.05416 5.1703,8.19994 6.08573,9.51268 6.74843,9.679 0.79638,0.19988 10.89493,0.0271 11.11146,-0.19017 0.0923,-0.0926 -1.12961,-2.23572 -2.71559,-4.7625 -6.68299,-10.64733 -8.86059,-14.08413 -11.52695,-18.19217 -1.54846,-2.38569 -2.81533,-4.50472 -2.81533,-4.70876 0,-0.35671 9.87795,-12.97487 16.06569,-20.52226 l 2.98431,-3.63957 V 138.5074 c 0,-46.28034 -0.0672,-58.07548 -0.33073,-58.07966 -0.1819,-0.003 -1.10464,-0.11547 -2.05052,-0.25011 -0.94589,-0.13465 -3.32714,-0.43071 -5.29167,-0.65785 -1.96452,-0.22714 -5.00062,-0.58517 -6.74687,-0.79581 -8.3461,-1.00675 -21.46692,-2.52071 -24.07708,-2.77813 -1.60073,-0.15786 -6.377,-0.64202 -10.61331,-1.07538 -4.23632,-0.43336 -7.77842,-0.78755 -7.87135,-0.78755 z m -24.16442,13.99708 c -1.59379,0.007 -3.2862,0.14314 -4.42919,0.40824 -4.03753,0.93636 -9.212,4.0584 -11.96877,7.22126 -2.28716,2.62409 -2.92435,3.55276 -4.20233,6.12469 -3.69367,7.43347 -4.64769,16.42768 -2.10737,19.86804 1.46233,1.98042 3.61919,2.92569 7.01611,3.07578 l 1.98438,0.0879 v 4.57233 c 0,5.08377 0.13416,5.56287 1.79833,6.40013 0.90191,0.45375 2.76731,0.43906 14.39292,-0.1111 2.6479,-0.12531 5.05605,-0.35704 5.35162,-0.51522 1.08264,-0.57941 1.20583,-1.23804 1.29966,-6.9572 l 0.0899,-5.49062 0.70435,-0.15089 c 1.54784,-0.33114 2.71674,-1.0208 3.28868,-1.94045 0.57781,-0.92908 0.59079,-1.12727 0.5886,-9.01961 -0.002,-7.52132 -0.0426,-8.22265 -0.59738,-10.31875 -1.59601,-6.03042 -5.646,-11.59557 -9.37359,-12.87983 -0.74698,-0.25736 -2.24215,-0.38117 -3.83594,-0.37465 z m -10.7425,14.62701 c 1.55264,-0.0936 3.15276,0.34337 4.57543,1.37666 3.50383,2.54483 3.90428,8.33866 0.81856,11.84424 -1.87391,2.12887 -4.9027,3.02582 -7.45691,2.20813 -1.67179,-0.53519 -3.47024,-2.18992 -4.23178,-3.8933 -0.87423,-1.95543 -0.88618,-5.07466 -0.0264,-6.95513 1.27809,-2.79514 3.73333,-4.42455 6.32106,-4.5806 z m 18.3255,0.65629 c 0.84457,-0.0136 1.88186,0.29002 2.41019,0.76791 1.56819,1.41919 2.44133,5.24648 1.84846,8.10235 -0.63622,3.06464 -2.93886,5.00881 -5.21518,4.40283 -0.93805,-0.24972 -2.35981,-1.73312 -2.90008,-3.02617 -1.51684,-3.6303 0.12859,-8.99943 3.10213,-10.12238 0.21275,-0.0803 0.47295,-0.11999 0.75448,-0.12454 z m -64.965023,1.1529 c -0.883089,-0.003 -2.219928,0.17593 -2.970878,0.39894 -2.754407,0.81797 -6.761467,5.2946 -7.827946,8.74469 -0.0948,0.30662 1.092478,-0.66147 2.677356,-2.18281 1.566419,-1.50362 3.702382,-3.39846 4.746481,-4.2106 v -5.2e-4 c 1.044099,-0.81213 2.591924,-1.7614 3.439583,-2.10994 l 1.541508,-0.63407 z m 17.274913,3.06493 c -3.61782,-0.033 -7.712232,-0.009 -9.76581,0.0946 -6.970883,0.35279 -9.432838,1.10743 -10.792106,3.30677 -0.849939,1.37523 -0.962484,2.74067 -0.341065,4.13722 0.74733,1.67952 8.724126,11.72255 14.05909,17.70021 3.620781,4.05699 4.298031,4.50178 5.371241,3.53053 0.78006,-0.70594 0.58104,-1.24299 -1.17357,-3.16776 -5.542618,-6.08013 -10.248464,-11.96687 -10.248464,-12.81989 0,-1.25859 1.194812,-0.34789 6.404777,4.88032 6.509327,6.53213 10.353697,9.95805 11.173987,9.95805 0.83827,0 1.57177,-0.88661 1.37666,-1.66398 -0.0872,-0.34751 -1.49195,-1.81194 -3.15329,-3.28766 -3.11215,-2.76441 -11.67502,-11.53461 -12.354799,-12.654 -0.31191,-0.51363 -0.323194,-0.7062 -0.05684,-0.97255 0.437729,-0.43774 0.491187,-0.40264 6.851249,4.44624 8.06995,6.15247 12.25271,9.10487 12.89896,9.10487 0.32416,0 0.80077,-0.23365 1.05885,-0.51883 0.87805,-0.97023 0.36211,-1.6739 -3.10162,-4.23282 -6.28159,-4.64071 -13.27045,-9.94325 -14.280775,-10.835 -1.188329,-1.04887 -1.306525,-2.05717 -0.227376,-1.93787 0.677051,0.0749 6.183221,3.3461 12.434891,7.38767 4.15171,2.684 4.98836,2.9468 5.73815,1.80247 0.39247,-0.59898 0.39446,-0.72057 0.0248,-1.28467 -0.37147,-0.56693 -5.95362,-4.36268 -12.34912,-8.39691 -1.38071,-0.87094 -2.59528,-1.66838 -2.69906,-1.77198 -0.10379,-0.1036 2.05217,-0.14737 4.79144,-0.0977 l 4.98057,0.0904 0.18604,-1.2392 c 0.1022,-0.68152 0.14705,-1.27173 0.0997,-1.31155 -0.14731,-0.12404 -3.28873,-0.21396 -6.90655,-0.24701 z m 40.33552,9.77356 c 0.12078,-0.13825 0.21962,3.04668 0.21962,7.07761 v 1.16789 6.16138 h -1.30173 c -0.7157,0 -1.48961,0.0724 -1.71979,0.16071 -0.36256,0.13913 -0.42411,-0.1881 -0.46043,-2.4474 -0.0152,-0.94282 -0.0203,-2.69916 -0.0155,-3.87469 0.002,-0.61289 0.008,-1.06815 0.0155,-1.16789 0.0506,-0.63955 2.95155,-6.7219 3.26233,-7.07761 z m 2.60087,7.52771 h 1.46296 1.46348 l -0.0744,3.24011 -0.0739,3.24011 -1.38906,0.0884 -1.38907,0.0879 v -3.32796 z m -8.99583,1.24902 v 3.07991 3.0794 h -1.45521 -1.45521 l -0.0269,-1.91823 c -0.0291,-2.08278 0.034,-3.72683 0.1478,-3.84472 0.0395,-0.0409 0.68306,-0.14662 1.4304,-0.23513 z m -46.201825,5.14904 c -0.0797,-0.14038 -3.295202,2.33745 -5.21932,4.02198 -0.996449,0.87236 -2.926775,2.88323 -4.289144,4.46846 -3.327216,3.8715 -5.448076,7.03205 -9.150862,13.63482 -1.289949,2.30024 -4.786937,10.2854 -4.251937,9.70897 0.13506,-0.14552 1.890189,-2.70536 3.900537,-5.68854 4.378426,-6.49722 8.94798,-12.66109 12.063346,-16.27188 2.325558,-2.69538 6.89649,-7.07456 7.54631,-7.22953 0.19729,-0.0471 0.359151,-0.19152 0.359151,-0.32143 0,-0.18268 -0.682861,-1.83832 -0.958081,-2.32285 z m 81.355235,10.07174 c 0.48462,0.0901 1.21183,0.36904 2.42517,0.88263 1.23251,0.52169 3.25324,1.34533 4.49017,1.82986 3.69321,1.4467 7.46626,2.9416 8.67234,3.43597 1.24343,0.50967 1.76423,1.19837 1.5105,1.99781 -0.11138,0.35092 -0.39459,0.51546 -0.87436,0.50694 -0.39037,-0.007 -4.28141,-1.44628 -8.64702,-3.19825 -4.36562,-1.75197 -8.14586,-3.37213 -8.40052,-3.6003 -0.53789,-0.48195 -0.59874,-1.15 -0.14573,-1.603 0.24288,-0.24288 0.48483,-0.34175 0.96945,-0.25166 z m 25.90695,9.76271 c 0.87135,0.18292 1.63445,1.44374 1.1529,2.50062 -0.32591,0.71529 -0.66568,0.77723 -1.62368,0.29507 -0.82096,-0.41319 -1.06685,-2.01418 -0.3948,-2.57193 0.2724,-0.22608 0.57512,-0.28474 0.86558,-0.22376 z m -22.23379,1.29501 c -0.67414,-0.005 -1.51306,0.0417 -2.66547,0.0935 -5.28835,0.23809 -7.18707,0.56705 -7.80521,1.35289 -0.26316,0.33456 -0.82325,1.62417 -1.24488,2.86598 -0.86854,2.55809 -0.76095,3.67283 0.37052,3.83439 0.90179,0.12877 1.75673,-0.82432 2.28875,-2.5523 0.25472,-0.82731 0.63346,-1.70068 0.8418,-1.94097 0.35989,-0.41507 2.46084,-0.81792 2.46084,-0.4718 0,0.0902 -0.23813,0.85629 -0.52917,1.70222 -0.69128,2.00922 -0.67218,2.61236 0.0971,3.0241 1.17887,0.63091 1.56176,0.29877 2.57245,-2.23242 l 0.94982,-2.37918 1.25573,-0.14676 1.25574,-0.14728 -0.15399,0.76998 c -0.0847,0.42346 -0.74974,2.4339 -1.47795,4.46743 -0.7282,2.03352 -1.32395,3.91908 -1.32395,4.19044 0,0.50469 0.92168,1.31723 1.49448,1.31723 0.17534,0 0.55751,-0.30323 0.84905,-0.67386 0.29155,-0.37064 0.61196,-1.05525 0.7121,-1.52135 0.10015,-0.46611 0.71851,-2.19315 1.37407,-3.8375 l 1.19166,-2.98948 1.22422,0.0791 c 0.99322,0.76279 0.56193,2.51742 -0.0357,4.38733 -0.30087,0.9741 -0.48755,1.82381 -0.4222,1.89549 0.62951,0.69054 1.52995,0.47401 1.86449,-0.032 1.19873,-1.81339 1.76915,-4.03112 2.19263,-6.48643 0.12289,-0.7125 -0.47666,-0.91296 -1.71359,-1.81953 -3.06254,-2.24459 -3.60101,-2.73287 -5.62343,-2.74918 z m 24.37577,0.14159 c 0.39979,-0.24708 2.90092,0.63013 3.66128,1.28416 0.63774,0.54856 0.6943,0.71712 0.46199,1.3777 -0.33032,0.93925 -0.71832,1.00137 -2.31976,0.37155 -0.69956,-0.27512 -1.4437,-0.64277 -1.65364,-0.81701 -0.41488,-0.34432 -0.52578,-1.98408 -0.14987,-2.2164 z m -53.52593,0.40721 c -0.75021,0.004 -1.69708,0.057 -3.02669,0.11007 -3.61132,0.1441 -5.01734,0.30592 -6.22339,0.71727 -2.93451,1.00087 -9.76276,5.29813 -16.03674,10.09241 -2.45152,1.87334 -3.06447,2.20844 -5.21364,2.84892 -5.5616,1.65741 -9.20591,2.90685 -9.64954,3.30833 -0.81862,0.74083 -1.57451,3.25554 -1.73736,5.77897 -0.13168,2.04056 -0.10005,2.33662 0.22272,2.07016 0.20715,-0.17102 3.09295,-1.39006 6.41253,-2.70888 3.31959,-1.31882 7.31069,-2.80137 8.86923,-3.29489 5.53639,-1.75311 8.24531,-3.28156 10.58695,-5.97379 0.7663,-0.88103 1.59762,-1.60197 1.84743,-1.60197 0.24982,0 2.85414,1.30969 5.78776,2.91041 2.93363,1.60073 5.56034,2.91042 5.83685,2.91042 0.27651,0 0.70402,-0.22289 0.95033,-0.49506 0.66272,-0.7323 0.13701,-1.63565 -1.51308,-2.59881 -8.1994,-4.78595 -8.27509,-4.83983 -7.84604,-5.64151 0.15448,-0.28866 0.46574,-0.52504 0.69195,-0.52504 0.22622,0 2.45446,1.117 4.95164,2.48202 2.49717,1.36502 5.4933,2.99104 6.65747,3.61374 1.16416,0.6227 2.41433,1.33559 2.77813,1.58388 0.3638,0.2483 1.05748,0.65341 1.5415,0.90072 0.81526,0.41654 0.92799,0.41806 1.53686,0.0191 0.98351,-0.64442 0.75821,-1.65986 -0.56482,-2.54248 -0.58208,-0.38832 -3.97537,-2.3762 -7.54063,-4.41782 -6.51088,-3.72843 -7.12088,-4.22169 -6.05544,-4.89376 0.33028,-0.20833 1.31232,0.19446 4.33875,1.7787 4.62206,2.4195 9.30383,5.05845 11.55795,6.51537 0.88982,0.57511 1.71827,1.04593 1.84123,1.04593 0.12296,0 0.46788,-0.24411 0.76637,-0.5426 0.63448,-0.63448 0.48339,-1.4835 -0.37414,-2.10323 -0.97502,-0.70464 -6.95446,-4.33032 -9.16327,-5.55625 -1.17985,-0.65485 -2.70468,-1.54242 -3.38842,-1.97249 l -1.24282,-0.78187 1.71721,-0.20154 1.71721,-0.20102 2.51612,1.47847 c 5.69229,3.34447 6.97214,4.0597 7.26364,4.0597 0.52664,0 0.94103,-0.605 0.94103,-1.37408 0,-0.88337 -0.8072,-1.51997 -5.29167,-4.17132 -3.73211,-2.20654 -4.21253,-2.63784 -6.46317,-2.6262 z m 16.12615,5.62188 c -0.10332,-0.0759 -0.46927,-0.028 -1.06454,0.16847 -0.6751,0.22281 -0.91741,0.43438 -0.81183,0.70951 0.0827,0.21561 0.15089,0.5015 0.15089,0.63511 0,0.13362 0.11907,0.24288 0.26459,0.24288 0.14552,0 0.26458,-0.16484 0.26458,-0.36639 0,-0.20154 0.30777,-0.56829 0.6842,-0.81494 0.45601,-0.29879 0.61543,-0.49871 0.51211,-0.57464 z m 27.60245,2.75229 -1.03043,0.46457 -1.03094,0.46457 1.11724,1.01079 c 0.61436,0.55587 1.17678,1.01487 1.24954,1.02009 0.0728,0.005 0.58355,-0.26386 1.13533,-0.59789 l 1.00304,-0.6072 -1.22163,-0.87747 z m -22.72161,0.41961 c -0.20616,0.008 -0.4874,0.14894 -1.04025,0.43098 -0.78435,0.40015 -1.5037,0.55019 -2.40605,0.5023 -0.90797,-0.0482 -1.67735,0.11447 -2.61018,0.55138 l -1.3224,0.61961 0.51832,0.72812 c 0.28519,0.40052 0.51883,0.86025 0.51883,1.02164 0,0.32301 0.36475,0.18712 4.7134,-1.7539 2.69672,-1.20369 2.72285,-1.22421 2.21796,-1.72909 -0.25245,-0.25245 -0.38347,-0.37862 -0.58963,-0.37104 z m 37.31452,0.4594 -1.01131,0.35709 c -0.94997,0.33517 -3.73793,1.66598 -4.00544,1.91203 -0.19392,0.17837 1.40301,1.39225 1.84175,1.39991 0.21828,0.004 1.02195,-0.28459 1.78593,-0.64027 1.37421,-0.63979 1.38907,-0.6593 1.38907,-1.83761 z m -17.15658,0.53486 -0.41754,0.63768 c -0.49808,0.76016 -0.53608,1.49016 -0.10026,1.92598 0.39378,0.39378 0.54575,0.39537 1.38958,0.0109 0.86007,-0.39187 0.84724,-0.61665 -0.0987,-1.69396 z m 6.81612,0.63303 c -0.0996,-0.004 -0.13456,0.0298 -0.10645,0.10232 0.35385,0.91257 0.46866,2.93987 0.1664,2.93987 -0.16488,0 -1.48119,0.5312 -2.92541,1.18029 -3.85423,1.73223 -3.74583,1.72568 -5.17849,0.29301 -1.0933,-1.0933 -1.26294,-1.17877 -1.62367,-0.81804 -0.22157,0.22157 -0.49863,0.40308 -0.61547,0.40308 -0.5137,0 -2.54488,-0.84715 -2.9838,-1.24437 -0.3197,-0.28932 -0.57138,-0.34794 -0.74569,-0.17363 -0.4484,0.44839 2.0044,2.02517 2.93729,1.88825 0.59869,-0.0879 0.77825,-0.0112 0.77825,0.33228 0,0.24553 0.0754,0.99865 0.16795,1.6738 0.13029,0.95065 0.0855,1.22782 -0.19844,1.22835 -0.20169,3.7e-4 -1.8873,0.70618 -3.74603,1.56838 l -3.37964,1.56786 -1.187,-1.02784 c -0.65291,-0.56509 -1.35583,-1.12155 -1.56167,-1.23714 -0.56857,-0.31927 -0.68486,-2.72386 -0.13177,-2.72386 0.15523,0 0.67231,0.29766 1.14928,0.66146 0.9829,0.74969 1.18573,0.78361 2.12752,0.3545 0.86199,-0.39274 0.84803,-0.53638 -0.14883,-1.53324 -0.60523,-0.60525 -0.96819,-0.77651 -1.37304,-0.64802 -0.47599,0.15107 -9.10867,4.01347 -13.41417,6.0017 -2.09969,0.96961 -5.87532,2.59194 -6.41614,2.75693 -0.25466,0.0777 -0.46302,0.22176 -0.46302,0.3204 0,0.3706 2.59394,2.14044 3.13727,2.14044 0.51414,0 0.56689,0.14264 0.56689,1.54254 v 1.54202 l -3.47782,1.49242 c -1.91276,0.82064 -3.6217,1.40636 -3.7977,1.30173 -0.176,-0.10463 -0.88393,-0.69093 -1.57303,-1.30277 -0.98632,-0.87572 -1.28277,-1.33256 -1.39217,-2.14818 -0.1851,-1.38007 0.23474,-1.58303 1.51878,-0.73329 1.15344,0.76331 1.78013,0.85171 2.46858,0.3483 0.43238,-0.31616 0.41821,-0.38941 -0.21394,-1.12448 -0.37191,-0.43245 -0.67627,-0.93483 -0.67645,-1.11673 -5.9e-4,-0.59952 0.94592,-0.34474 1.7198,0.46302 0.88246,0.9211 1.33485,0.97589 2.24895,0.27337 l 0.66146,-0.50798 -0.91209,-0.94103 c -0.50149,-0.51754 -1.00407,-0.94103 -1.11673,-0.94103 -0.11265,0 -0.83316,0.28055 -1.60145,0.62374 -3.96442,1.77086 -6.09518,2.58187 -6.43888,2.44998 -0.26918,-0.1033 -0.38189,-0.57884 -0.38189,-1.61024 0,-1.36866 0.0409,-1.46348 0.6351,-1.46348 0.54594,0 8.86607,-3.49911 15.2399,-6.40942 1.09141,-0.49834 3.47266,-1.54249 5.29167,-2.32028 1.819,-0.77779 3.3371,-1.43399 3.37395,-1.45831 0.0369,-0.0243 -0.007,-0.58355 -0.0971,-1.24281 l -0.16433,-1.1989 -3.8716,1.66295 c -2.12931,0.91458 -6.61004,2.86918 -9.95702,4.34341 -3.34697,1.47421 -7.55848,3.3256 -9.35911,4.11447 l -3.27371,1.43454 -1.12603,-0.65991 c -1.1364,-0.66598 -1.64291,-1.7001 -1.28674,-2.62826 0.19105,-0.49786 0.4554,-0.50197 1.38803,-0.0196 0.68492,0.35418 0.88104,0.31616 2.83135,-0.5488 1.15242,-0.51109 2.60097,-1.12433 3.21944,-1.36323 1.0536,-0.40698 1.4888,-0.84956 0.8351,-0.84956 -0.15943,0 -0.64282,-0.25118 -1.07384,-0.5581 -0.43103,-0.30691 -0.81598,-0.51527 -0.85525,-0.46302 -0.0393,0.0523 -0.22461,0.48073 -0.41237,0.95239 -0.74251,1.8652 -3.16062,2.42018 -5.92936,1.36064 l -1.46347,-0.56017 -1.93322,0.78807 c -1.06331,0.43326 -2.15678,0.86559 -2.42983,0.96118 -0.42749,0.14965 -0.34539,0.28368 0.59273,0.96325 0.59922,0.43407 1.38831,0.7891 1.75338,0.7891 0.61602,0 0.66367,0.0904 0.65991,1.25677 -0.002,0.69122 -0.0962,1.40129 -0.20825,1.57768 -0.2109,0.33186 -4.71893,2.40114 -6.47093,2.97036 -0.91924,0.29865 -1.05508,0.27304 -1.7849,-0.34106 -0.43436,-0.36549 -1.0285,-0.74041 -1.32033,-0.83303 -0.4366,-0.13857 -0.5302,-0.39941 -0.5302,-1.47329 0,-1.48603 0.4183,-1.69074 1.5875,-0.77618 0.8093,0.63304 1.53997,0.6648 2.34301,0.10232 l 0.60926,-0.42633 -0.71158,-0.74259 c -0.65148,-0.68 -0.70826,-1.31465 -0.11783,-1.31465 0.13187,0 0.67266,0.38015 1.202,0.84491 l 0.96273,0.84491 1.17667,-0.62426 1.17667,-0.62425 -0.95549,-0.92759 -0.9555,-0.92811 -1.37304,0.601 c -0.75517,0.33054 -2.2655,0.93974 -3.3569,1.35392 -1.09141,0.41418 -3.7113,1.45823 -5.82135,2.32027 -2.11005,0.86204 -6.81303,2.76663 -10.45104,4.2323 -3.63802,1.46568 -7.18441,2.91773 -7.88118,3.22668 l -1.2671,0.56172 1.92856,1.38545 c 4.85579,3.48903 9.53078,6.79777 11.65149,8.24549 1.2733,0.86924 3.47595,2.37912 4.89479,3.35535 1.41883,0.97622 2.71191,1.7799 2.87321,1.78594 0.1613,0.006 3.49504,-1.48145 7.40833,-3.30523 3.91328,-1.82378 7.35346,-3.42289 7.6445,-3.55378 2.25646,-1.01488 7.93918,-3.64099 13.49375,-6.2358 3.63801,-1.69949 9.05536,-4.19435 12.03854,-5.54385 5.10589,-2.30977 10.10504,-4.60099 19.05,-8.73073 2.11004,-0.97418 5.26521,-2.42593 7.01146,-3.22616 3.61084,-1.65471 6.76458,-3.22714 7.11894,-3.54914 0.13334,-0.12115 -1.0798,-0.85422 -2.72593,-1.64744 -1.51405,-0.72957 -2.39605,-1.09248 -2.69493,-1.10588 z m -91.19339,3.30729 c -1.89402,-3.4e-4 -3.24115,0.10483 -3.24115,0.25322 0,0.13965 -0.49,0.7052 -1.08882,1.25677 -0.59882,0.55157 -1.59101,1.71741 -2.204516,2.59054 -1.686849,2.40064 -2.581266,4.5686 -1.535307,3.7207 0.25466,-0.20644 1.594114,-1.24786 2.976563,-2.31407 3.80972,-2.93826 5.01294,-3.77251 6.74687,-4.67775 l 1.5875,-0.82889 z m -5.03587,0.0326 c -1.55514,-0.0691 -4.203412,0.003 -7.023344,0.25735 -6.057144,0.54651 -9.982053,2.67359 -13.332519,7.22488 -1.803288,2.4496 -1.887469,2.80534 -0.303341,1.28261 0.794559,-0.76375 2.153275,-1.90331 3.019454,-2.53215 2.114108,-1.53482 4.474508,-2.81459 7.660514,-4.15375 1.455209,-0.61167 2.797344,-1.23525 2.982764,-1.38544 0.18542,-0.1502 0.41533,-0.19444 0.51108,-0.0987 0.0958,0.0958 -0.481903,0.7587 -1.283643,1.47329 -1.576908,1.40547 -3.13257,3.50725 -3.807519,5.14387 l -0.424264,1.02785 0.746208,-0.57103 c 4.513415,-3.45478 9.91569,-6.71814 11.71814,-7.07864 1.55363,-0.31072 1.09161,-0.521 -0.46353,-0.59014 z m 81.18574,0.0382 c -0.37628,-0.0713 -0.80836,0.0626 -1.45625,0.37155 l -0.92862,0.44287 0.91984,0.62477 c 0.50586,0.34375 0.91984,0.73977 0.91984,0.88005 0,0.37845 0.71463,0.30973 1.61437,-0.15555 l 0.79427,-0.41083 -0.74156,-0.89296 c -0.42529,-0.5122 -0.74562,-0.78864 -1.12189,-0.8599 z m -9.94927,4.80177 c 0.16039,-0.0439 0.61167,0.17717 1.25161,0.69143 0.70021,0.56271 1.35759,0.87153 1.78593,0.83923 0.65055,-0.0491 0.67988,0.0115 0.73536,1.50637 0.0567,1.52677 0.041,1.5643 -0.79375,1.90066 -0.46836,0.18871 -2.55094,1.09313 -4.62814,2.00969 -4.79167,2.1143 -4.76698,2.10904 -5.75572,1.19941 -0.44082,-0.40556 -1.06108,-0.91888 -1.37821,-1.14101 -0.36181,-0.25343 -0.64227,-0.81488 -0.75293,-1.50689 -0.23389,-1.46264 0.32734,-1.71085 1.62729,-0.71933 1.54355,1.17732 3.24747,0.30996 1.99988,-1.01803 -0.30945,-0.3294 -0.56224,-0.74008 -0.56224,-0.9126 0,-0.55695 0.67504,-0.33426 1.45521,0.48007 0.87679,0.91518 1.57849,0.99211 2.51199,0.27492 l 0.66042,-0.50746 -0.72657,-0.7581 c -0.39949,-0.41698 -0.72605,-0.84088 -0.72605,-0.94206 0,-0.46167 0.97915,-0.10803 1.7384,0.62787 0.82451,0.79915 0.85249,0.80551 1.79834,0.41031 0.52848,-0.22082 0.96118,-0.49033 0.96118,-0.59893 0,-0.10861 -0.31891,-0.53026 -0.70849,-0.93689 -0.52327,-0.54618 -0.6539,-0.85479 -0.49351,-0.89866 z m -30.04157,5.88957 c 0.27325,-0.0194 0.98978,0.28932 1.97404,0.93844 1.628,1.07369 1.71637,1.18513 1.73012,2.18953 0.008,0.58209 -0.0811,1.2083 -0.1974,1.39165 -0.20417,0.32162 -6.51756,2.97293 -7.0559,2.96312 -0.14552,-0.003 -0.63372,-0.32859 -1.08469,-0.7245 -0.45097,-0.39592 -1.07605,-0.92706 -1.38906,-1.18029 -0.59346,-0.48012 -0.75208,-1.61892 -0.3204,-2.30115 0.20017,-0.31635 0.41377,-0.26064 1.26711,0.33073 1.18055,0.81812 1.8212,0.88591 2.68097,0.2837 l 0.6103,-0.42736 -0.85989,-0.88729 c -0.70469,-0.72706 -0.78396,-0.91591 -0.43977,-1.04799 0.53343,-0.2047 1.42458,0.26603 1.78749,0.94412 0.35859,0.67004 0.95822,0.66076 2.09548,-0.0326 l 0.90847,-0.55397 -1.02009,-0.8568 c -0.78964,-0.66294 -0.96004,-1.01 -0.68678,-1.02939 z m -15.74478,3.3569 c 0.2421,-0.0402 0.45689,-0.0373 0.59583,0.0165 0.46807,0.18136 0.46719,0.20366 -0.0264,0.5669 -0.28248,0.20788 -0.85545,0.37775 -1.27279,0.37775 -0.91391,0 -0.81154,0.21583 0.55035,1.15962 l 1.03663,0.7183 1.21595,-0.59066 c 1.18759,-0.57698 1.22776,-0.57955 1.75906,-0.0987 0.69047,0.62487 0.40465,0.91253 -1.13843,1.1436 l -1.21336,0.18138 1.04283,0.87333 1.04283,0.87282 1.22628,-0.54209 c 0.67444,-0.29834 1.3749,-0.5426 1.55649,-0.5426 0.40561,0 0.75934,1.59504 0.42737,1.92701 -0.13202,0.13202 -1.17562,0.62911 -2.31873,1.10485 -1.14309,0.47574 -3.64831,1.59529 -5.56761,2.48822 -1.91931,0.89292 -3.70524,1.62282 -3.96875,1.6216 -0.26351,-0.001 -1.49107,-0.72079 -2.728,-1.59887 v 5.2e-4 c -4.20816,-2.9873 -4.76289,-3.45872 -4.7625,-4.04988 2.8e-4,-0.43897 0.33001,-0.70119 1.46141,-1.1622 0.80355,-0.32743 1.68881,-0.59532 1.96732,-0.59532 0.43095,0 0.48395,-0.13793 0.35605,-0.92604 -0.16504,-1.01706 -0.0546,-1.07395 1.2206,-0.62942 0.6934,0.24172 1.03798,0.21224 1.85932,-0.15813 1.03855,-0.46832 1.85505,-0.47075 1.94665,-0.007 0.0287,0.14552 -0.44525,0.38466 -1.05265,0.53124 -0.6074,0.14658 -1.17496,0.33728 -1.26142,0.42375 -0.0865,0.0865 0.33053,0.4949 0.92656,0.90795 0.99933,0.69255 1.1489,0.72432 1.92288,0.40928 0.46163,-0.1879 1.10763,-0.40303 1.43505,-0.47801 0.84631,-0.1938 0.75204,-0.38006 -0.60358,-1.19889 -1.13564,-0.68595 -1.81171,-1.64503 -1.51412,-2.14716 0.0745,-0.12577 0.61171,-0.1644 1.19373,-0.0863 0.67978,0.0912 1.36852,-0.006 1.92598,-0.27182 0.24754,-0.11804 0.51703,-0.20162 0.75912,-0.24184 z m 20.94446,1.63091 c 0.40859,-0.0208 1.1098,0.33842 1.78542,0.95549 0.50174,0.45827 1.12285,0.75655 1.57561,0.75655 0.74664,0 0.74739,0.002 0.6687,1.60403 l -0.0791,1.60404 -3.39204,1.43867 c -1.86565,0.79122 -3.59205,1.43873 -3.83646,1.43867 -0.24437,-5e-5 -1.1286,-0.63256 -1.96525,-1.40508 -1.19351,-1.10208 -1.52092,-1.57254 -1.51774,-2.18281 0.007,-1.41251 0.30786,-1.52333 1.6738,-0.61857 1.1345,0.75146 1.31647,0.79649 2.03295,0.49971 0.4329,-0.17931 0.78755,-0.42652 0.78755,-0.54932 0,-0.12281 -0.36927,-0.64356 -0.8201,-1.15703 -0.67377,-0.76738 -0.74597,-0.96185 -0.40566,-1.09244 0.2536,-0.0973 0.8715,0.2161 1.59473,0.80873 1.15422,0.9458 1.19871,0.95779 1.97662,0.55553 1.1505,-0.59495 1.19035,-0.81584 0.28371,-1.57872 -0.44642,-0.37564 -0.74435,-0.79223 -0.66198,-0.92552 0.0593,-0.096 0.16301,-0.14499 0.29921,-0.15193 z m -29.3703,2.7559 c -0.15435,0.12744 -0.72709,0.31506 -1.27279,0.41703 -0.5457,0.10198 -0.99346,0.26155 -0.99477,0.3545 -0.004,0.30578 1.71371,1.60985 2.11925,1.60869 0.21828,-6.3e-4 0.84351,-0.27558 1.38958,-0.61134 l 0.9927,-0.61081 -0.97668,-0.69505 c -0.59884,-0.42608 -1.08525,-0.60509 -1.25729,-0.46302 z m 7.98349,0.20877 c -0.15742,-0.0245 -0.28222,-0.008 -0.35346,0.0605 -0.13079,0.12521 -0.76147,0.32902 -1.40147,0.45269 l -1.16375,0.22479 1.09761,0.76016 c 0.6036,0.41831 1.0976,0.87345 1.0976,1.01131 0,0.13785 0.0897,0.21129 0.19947,0.16278 0.10982,-0.0485 0.7674,-0.31387 1.46141,-0.58963 1.22842,-0.4881 1.24953,-0.51538 0.79324,-1.01957 -0.49277,-0.5445 -1.25837,-0.98949 -1.73065,-1.06299 z m -4.73356,2.05724 c -0.25198,0.008 -0.54219,0.10263 -1.00769,0.28887 -0.58744,0.23505 -1.06323,0.50353 -1.0573,0.59687 0.006,0.0933 0.51195,0.54019 1.12448,0.9927 l 1.11414,0.82269 1.11932,-0.5426 c 1.07842,-0.52243 1.1033,-0.56091 0.66249,-1.048 -0.25176,-0.27819 -0.78099,-0.67312 -1.17616,-0.87747 -0.31313,-0.16193 -0.5273,-0.24093 -0.77928,-0.23306 z m 14.00276,0.39429 c 0.31453,0 0.99581,0.37169 1.5136,0.82631 0.82689,0.72602 1.06901,0.80614 1.99316,0.65836 l 1.05265,-0.16795 v 1.30431 c 0,0.71742 0.0563,1.46295 0.12558,1.65675 0.0863,0.24156 -1.14302,0.91407 -3.90881,2.13837 -2.21901,0.98226 -4.09105,1.77781 -4.16047,1.76785 -0.0694,-0.01 -0.60233,-0.37475 -1.18442,-0.81029 -2.08343,-1.55889 -2.77812,-2.39239 -2.77812,-3.33313 0,-1.22576 0.58077,-1.34405 1.7725,-0.36173 1.07497,0.88608 1.71431,0.99373 2.6882,0.45372 l 0.62477,-0.34623 -0.9555,-0.9276 c -1.14405,-1.11108 -1.1743,-1.27124 -0.24029,-1.27124 0.44116,0 1.03915,0.31418 1.56114,0.82011 0.91242,0.88435 1.32239,0.88145 2.48667,-0.016 l 0.66146,-0.50953 -0.91209,-0.94103 c -0.83289,-0.85954 -0.8624,-0.94103 -0.34003,-0.94103 z m -29.30725,1.36219 -5.75469,2.50838 c -11.083084,4.83115 -10.692879,4.69753 -13.626036,4.66793 l -2.579688,-0.0258 5.17e-4,26.10435 10e-4,26.10487 h 4.033863 4.034379 l 0.06976,-8.14938 c 0.0385,-4.48204 0.172053,-8.0858 0.296623,-8.00881 0.124559,0.077 0.926224,-0.0376 1.781803,-0.25425 6.953729,-1.7603 11.347439,-6.91661 12.288649,-14.42289 0.26474,-2.11136 -0.007,-5.89503 -0.57929,-8.05842 -0.54276,-2.05261 -2.3658,-5.35261 -3.88194,-7.028 -1.60256,-1.77087 -5.599447,-4.58541 -6.925665,-4.8767 -0.974189,-0.21397 -1.26448,-0.60752 -0.619601,-0.83974 0.45704,-0.16459 1.683497,-0.69518 8.483716,-3.67316 l 2.97656,-1.3038 v -1.37201 z m 56.80428,15.09779 c -0.89981,0.0407 -1.80202,0.1542 -2.69699,0.3421 -6.71016,1.40882 -11.31559,6.98501 -13.26379,16.06 -0.63659,2.96532 -0.63369,10.06466 0.006,12.91084 1.52864,6.80628 4.49097,11.59206 8.75709,14.14746 1.49247,0.89398 4.04316,1.80558 5.82394,2.08204 1.23114,0.19113 4.78142,-0.0895 6.37273,-0.50384 7.34409,-1.91317 12.16526,-9.53981 12.95063,-20.48816 0.39259,-5.47268 -1.01708,-11.87091 -3.67212,-16.66875 -1.18819,-2.14713 -4.44041,-5.2923 -6.52312,-6.30814 -2.37867,-1.16019 -5.05461,-1.69555 -7.75405,-1.57355 z m -43.70172,0.47749 c -0.30813,0.077 -0.62867,0.2455 -1.06402,0.46716 -3.0362,1.54588 -5.99093,4.71428 -7.80521,8.37054 -4.22676,8.5181 -4.05102,20.13198 0.42582,28.1373 1.13119,2.02276 3.62976,4.75092 5.38003,5.87406 3.55572,2.28169 8.78488,2.91409 13.09326,1.58337 2.54111,-0.78487 5.52502,-2.90771 7.23315,-5.14594 3.72973,-4.88722 5.3544,-10.89172 5.00486,-18.49603 -0.16924,-3.68186 -0.76892,-6.68279 -1.88413,-9.42733 -0.71178,-1.75173 -2.71266,-5.42351 -3.70209,-6.79338 l -0.61392,-0.84956 -2.7249,1.33428 c -2.174,1.06479 -2.83574,1.2825 -3.27422,1.07746 -0.30225,-0.14134 -2.50359,-1.64119 -4.89169,-3.33313 -3.44278,-2.43919 -4.25255,-3.0299 -5.17694,-2.7988 z m -26.860891,1.81229 0.595313,0.1757 c 1.778288,0.52528 3.414996,2.16847 4.487064,4.50464 0.50809,1.10719 0.600364,1.75594 0.601514,4.21886 0.001,2.65473 -0.06609,3.05694 -0.766878,4.5775 -0.830159,1.80137 -2.734014,3.76195 -4.123263,4.24625 l -0.79375,0.27699 v -8.99997 z m 70.918661,7.90081 c 1.62651,-0.0947 3.29807,0.47011 4.64933,1.71566 2.50471,2.30877 3.70033,6.52567 3.46594,12.22561 -0.18112,4.40456 -0.92999,6.92458 -2.78226,9.36119 -1.68144,2.21187 -5.08227,3.03121 -7.59437,1.82934 -3.57753,-1.7116 -5.38033,-6.38783 -5.07101,-13.1532 0.20909,-4.57342 1.11134,-7.54895 2.95279,-9.73739 1.17172,-1.39251 2.75307,-2.14646 4.37958,-2.24121 z m -38.75784,0.0837 c 3.4628,-0.0301 6.1268,2.83753 7.11791,7.66155 1.52925,7.44319 -0.21848,14.88866 -4.01784,17.11523 -1.33737,0.78376 -4.09281,1.06015 -5.57227,0.55914 -0.47883,-0.16215 -1.33011,-0.74055 -1.89187,-1.28571 -2.44012,-2.36806 -3.48766,-5.63718 -3.51297,-10.96471 -0.0198,-4.15841 0.46386,-6.59415 1.82367,-9.18186 1.41946,-2.70125 3.24637,-3.87926 6.05337,-3.90364 z" /></g></g></svg>
